<svg width="513" height="170" viewBox="0 0 513 170" fill="none" xmlns="http://www.w3.org/2000/svg">
<g clip-path="url(#clip0_1_76)">
<path d="M2.49701 2.50296C0.832009 4.16796 0 6.16496 0 8.66196V86.394C0 95.382 2.16401 103.372 6.82501 110.363C11.486 117.354 17.81 122.846 26.133 126.841C34.456 130.836 43.776 132.667 54.429 132.667C64.583 132.667 73.737 130.836 81.727 126.841C89.717 122.846 96.041 117.353 100.536 110.363C105.031 103.373 107.36 95.383 107.36 86.393V8.66196C107.36 6.16496 106.528 4.16796 104.863 2.50296C103.199 0.83896 101.202 0.00695801 98.871 0.00695801C96.374 0.00695801 94.377 0.83896 92.712 2.50296C91.047 4.16696 90.216 6.16496 90.216 8.66196V86.394C90.216 92.3859 88.551 97.546 85.556 102.207C82.561 106.868 78.231 110.529 72.905 113.192C67.412 115.855 61.254 117.021 54.429 117.021C47.105 117.021 40.78 115.855 35.121 113.192C29.462 110.529 25.134 106.867 21.971 102.207C18.808 97.547 17.311 92.3859 17.311 86.394V8.66196C17.311 6.16496 16.479 4.16796 14.814 2.50296C13.149 0.83796 11.152 0.00695801 8.655 0.00695801C6.158 0.00695801 4.16101 0.83896 2.49701 2.50296Z" fill="#CEB324"/>
<path d="M231.712 51.942C222.724 42.952 211.904 38.459 199.088 38.459C186.272 38.459 175.452 42.953 166.464 51.941C157.476 60.929 152.981 71.915 152.981 84.565V161.132C152.981 163.462 153.647 165.293 155.311 166.792C156.809 168.456 158.641 169.122 160.971 169.122C163.135 169.122 164.965 168.456 166.464 166.792C168.128 165.293 168.96 163.462 168.96 161.132V119.52C177.45 127.01 187.603 130.838 199.088 130.838C211.904 130.838 222.724 126.344 231.712 117.356C240.7 108.201 245.361 97.382 245.361 84.5659C245.361 71.9159 240.701 60.929 231.711 51.941M199.088 114.859C190.765 114.859 183.608 111.863 177.782 106.037C171.79 100.045 168.96 92.887 168.96 84.565C168.96 79.239 170.292 74.079 172.955 69.418C175.618 64.758 179.28 61.0963 183.941 58.433C188.601 55.769 193.595 54.438 199.088 54.438C207.41 54.438 214.568 57.434 220.393 63.26C226.385 69.252 229.381 76.243 229.381 84.565C229.381 92.8876 226.385 100.045 220.393 106.037C214.567 111.863 207.41 114.859 199.088 114.859Z" fill="#CEB324"/>
<path d="M382.753 117.851L335.814 5.83005C334.316 2.00205 331.654 0.00402832 327.658 0.00402832C323.83 0.00402832 321.167 2.00205 319.502 5.83005L272.73 117.518C272.187 118.721 271.903 120.026 271.898 121.346C271.898 123.843 272.564 125.84 274.228 127.505C275.892 129.17 277.89 130.001 280.387 130.001C282.051 130.001 283.549 129.668 285.047 128.67C286.379 127.671 287.544 126.506 288.377 124.675L327.991 27.801L366.941 124.675C367.44 126.339 368.605 127.671 370.103 128.67C371.601 129.669 373.099 130.001 374.93 130.001C377.26 130.001 379.424 129.169 381.089 127.505C382.753 125.84 383.585 123.843 383.585 121.512C383.585 120.514 383.253 119.349 382.753 117.851Z" fill="#CEB324"/>
<path d="M413.789 2.33002C412.125 3.99402 411.459 5.99199 411.459 8.32199V99.204C411.459 105.196 412.458 110.522 414.621 115.183C416.619 119.843 419.615 123.505 423.443 126.168C427.271 128.831 431.599 129.997 436.426 129.997H436.759C440.089 129.997 442.751 129.331 444.915 127.667C446.913 126.168 448.078 124.171 448.078 121.674C448.078 119.344 447.246 117.347 445.914 115.682C444.582 114.184 442.751 113.352 440.588 113.352H436.426C433.929 113.352 431.932 112.02 430.434 109.357C428.77 106.694 428.104 103.365 428.104 99.204V8.32199C428.104 5.99199 427.272 3.99402 425.774 2.33002C424.109 0.832017 422.112 0 419.781 0C417.285 0 415.287 0.832017 413.789 2.33002Z" fill="#CEB324"/>
<path d="M477.722 2.33002C476.057 3.99402 475.392 5.99199 475.392 8.32199V99.204C475.392 105.196 476.39 110.522 478.554 115.183C480.552 119.843 483.548 123.505 487.376 126.168C491.204 128.831 495.532 129.997 500.359 129.997H500.692C504.021 129.997 506.684 129.331 508.848 127.667C510.845 126.168 512.011 124.171 512.011 121.674C512.011 119.344 511.178 117.347 509.847 115.682C508.515 114.184 506.684 113.352 504.52 113.352H500.36C497.863 113.352 495.865 112.02 494.367 109.357C492.702 106.694 492.037 103.365 492.037 99.204V8.32199C492.037 5.99199 491.204 3.99402 489.707 2.33002C488.042 0.832017 486.044 0 483.714 0C481.217 0 479.22 0.832017 477.722 2.33002Z" fill="#CEB324"/>
</g>
<defs>
<clipPath id="clip0_1_76">
<rect width="512.011" height="169.122" fill="white"/>
</clipPath>
</defs>
</svg>
